<svg width="24" height="24" viewBox="0 0 24 24" fill="none" xmlns="http://www.w3.org/2000/svg">
<path d="M23.96 0H0.04C-0.53525 0 -1 0.429 -1 0.96V23.04C-1 23.571 -0.53525 24 0.04 24H23.96C24.5352 24 25 23.571 25 23.04V0.96C25 0.429 24.5352 0 23.96 0ZM20.957 7.005H18.8802C17.252 7.005 16.9368 7.719 16.9368 8.769V11.082H20.8237L20.3167 14.703H16.9368V24H12.884V14.706H9.49425V11.082H12.884V8.412C12.884 5.313 14.9347 3.624 17.9312 3.624C19.3678 3.624 20.5995 3.723 20.9602 3.768V7.005H20.957Z" fill="#2C1F1D"/>
</svg>
