<svg width="26" height="22" viewBox="0 0 26 22" fill="none" xmlns="http://www.w3.org/2000/svg">
<path d="M23.477 1.50749C20.7094 -0.771094 16.5707 -0.392967 14.0011 2.17044L13.0007 3.17223L12.0003 2.17535C9.92845 0.103017 5.74911 -1.14431 2.52448 1.50749C-0.664617 4.13964 -0.832197 8.86377 2.02174 11.712L11.848 21.5237C12.1628 21.8379 12.5793 22 12.9957 22C13.4121 22 13.8285 21.8429 14.1433 21.5237L23.9696 11.712C26.8337 8.86377 26.6661 4.13964 23.477 1.50749ZM22.8118 10.6218L13.0211 20.4335L3.18972 10.6218C1.2397 8.67717 0.833443 4.96956 3.58073 2.70571C6.36357 0.407483 9.63392 2.07222 10.8324 3.27044L13.0007 5.43608L15.1691 3.27044C16.3473 2.09187 19.6481 0.422215 22.4208 2.70571C25.163 4.96465 24.7618 8.67226 22.8118 10.6218Z" fill="#2C1F1D"/>
</svg>
