<svg width="18" height="18" viewBox="0 0 18 18" fill="none" xmlns="http://www.w3.org/2000/svg">
<path d="M16.95 18C17.1167 18 17.2917 17.9957 17.475 17.987C17.6583 17.9783 17.8333 17.966 18 17.95V12.1L13 11.1L10.1 14C8.83333 13.2333 7.67067 12.325 6.612 11.275C5.55333 10.225 4.67433 9.1 3.975 7.9L6.825 5.025L5.9 0H0.0499992C0.0166664 0.166667 0 0.341667 0 0.525V1.05C0 3.2 0.479 5.296 1.437 7.338C2.395 9.38 3.66167 11.1923 5.237 12.775C6.81233 14.3583 8.62067 15.625 10.662 16.575C12.7033 17.525 14.7993 18 16.95 18ZM3.025 6C2.74167 5.35 2.525 4.69167 2.375 4.025C2.225 3.35833 2.10833 2.68333 2.025 2H4.25L4.675 4.35L3.025 6ZM11.975 14.95L13.65 13.275L16 13.75V15.95C15.3167 15.9 14.6373 15.7917 13.962 15.625C13.2867 15.4583 12.6243 15.2333 11.975 14.95Z" fill="#2C1F1D"/>
</svg>
