<svg width="22" height="22" viewBox="0 0 22 22" fill="none" xmlns="http://www.w3.org/2000/svg">
<path d="M21.8485 20.6927L16.3058 15.15C16.207 15.0512 16.0781 14.9997 15.9406 14.9997H15.4981C16.9718 13.4056 17.8741 11.2787 17.8741 8.93706C17.8741 4.0002 13.8739 0 8.93706 0C4.0002 0 0 4.0002 0 8.93706C0 13.8739 4.0002 17.8741 8.93706 17.8741C11.2787 17.8741 13.4056 16.9718 14.9997 15.5024V15.9406C14.9997 16.0781 15.0555 16.207 15.15 16.3058L20.6927 21.8485C20.8947 22.0505 21.2212 22.0505 21.4232 21.8485L21.8485 21.4232C22.0505 21.2212 22.0505 20.8947 21.8485 20.6927ZM8.93706 16.4992C4.75641 16.4992 1.37493 13.1177 1.37493 8.93706C1.37493 4.75641 4.75641 1.37493 8.93706 1.37493C13.1177 1.37493 16.4992 4.75641 16.4992 8.93706C16.4992 13.1177 13.1177 16.4992 8.93706 16.4992Z" fill="#2C1F1D"/>
</svg>
