<svg width="20" height="22" viewBox="0 0 20 22" fill="none" xmlns="http://www.w3.org/2000/svg">
<path d="M15.7143 5.5C15.7143 2.46731 13.1508 0 10 0C6.84911 0 4.28571 2.46731 4.28571 5.5H0V18.5625C0 20.461 1.59897 22 3.57143 22H16.4286C18.401 22 20 20.461 20 18.5625V5.5H15.7143ZM10 1.375C12.3632 1.375 14.2857 3.22545 14.2857 5.5H5.71429C5.71429 3.22545 7.63683 1.375 10 1.375ZM18.5714 18.5625C18.5714 19.6998 17.6101 20.625 16.4286 20.625H3.57143C2.38987 20.625 1.42857 19.6998 1.42857 18.5625V6.875H4.28571V8.9375C4.28571 9.31721 4.60554 9.625 5 9.625C5.39446 9.625 5.71429 9.31721 5.71429 8.9375V6.875H14.2857V8.9375C14.2857 9.31721 14.6055 9.625 15 9.625C15.3945 9.625 15.7143 9.31721 15.7143 8.9375V6.875H18.5714V18.5625Z" fill="#2C1F1D"/>
</svg>
